# xmcd
#
# Track frame offsets:
#        150
#        23557
#        56725
#        80405
#
# Disc length: 1362 seconds
#
# Revision: 0
# Processed by: cddbd v1.5.1PL0 Copyright (c) Steve Scherf et al.
# Submitted via: ExactAudioCopy v0.95a5
#
DISCID=26055004
DTITLE=Kiss Destination - Sweet Memories
DYEAR=2000
DGENRE=R&B
TTITLE0=Sweet Memories ( Originak Mix )
TTITLE1=Sweet Memories ( Extended Club Mix )
TTITLE2=Sweet Memories ( TV Miv ).
TTITLE3=Sweet Memories ( Acappella )
EXTD=
EXTT0=
EXTT1=
EXTT2=
EXTT3=
PLAYORDER=
